<svg width="33" height="33" viewBox="0 0 34 34" fill="none" xmlns="http://www.w3.org/2000/svg">
<path d="M31.9765 16.579C31.9765 7.74898 24.8183 0.59082 15.9883 0.59082C7.15822 0.59082 6.10352e-05 7.74898 6.10352e-05 16.579C6.10352e-05 25.4091 7.15822 32.5672 15.9883 32.5672C24.8183 32.5672 31.9765 25.4091 31.9765 16.579Z" fill="#FFFF00"/>
<path d="M3.75197 15.3841C3.27974 12.706 3.04363 11.3669 3.38446 10.2521C3.68426 9.27146 4.28681 8.41094 5.10575 7.79383C6.03675 7.09226 7.37581 6.85615 10.054 6.38393L18.1441 4.95742C20.8222 4.48519 22.1613 4.24908 23.2761 4.58991C24.2567 4.88971 25.1172 5.49226 25.7343 6.3112C26.4359 7.2422 26.672 8.58126 27.1442 11.2594L28.2538 17.5519C28.726 20.2301 28.9621 21.5691 28.6213 22.6839C28.3215 23.6645 27.7189 24.5251 26.9 25.1422C25.969 25.8437 24.6299 26.0798 21.9518 26.5521L13.8617 27.9786C11.1836 28.4508 9.84446 28.6869 8.72966 28.3461C7.74905 28.0463 6.88852 27.4437 6.27141 26.6248C5.56985 25.6938 5.33373 24.3547 4.86151 21.6766L3.75197 15.3841Z" fill="#7000FF"/>
<path d="M20.5488 11.6748C21.0312 11.781 21.498 11.8717 21.956 11.9889C22.4427 12.1128 22.925 12.2633 23.4073 12.3982C23.4759 12.4181 23.5025 12.4447 23.5025 12.5221C23.5002 14.0288 23.5157 15.5377 23.4958 17.0444C23.4737 18.6639 22.9626 20.1285 21.9781 21.4161C20.8807 22.852 19.4448 23.7768 17.6882 24.1972C16.9957 24.3631 16.2899 24.4184 15.5797 24.3764C13.8916 24.2768 12.396 23.6817 11.1172 22.5777C9.79855 21.4427 8.96667 20.0135 8.63259 18.301C8.53746 17.8143 8.49985 17.3209 8.49985 16.8253C8.49763 15.3983 8.49985 13.9735 8.49542 12.5465C8.49542 12.4513 8.5264 12.4181 8.61268 12.3916C9.53306 12.0973 10.4712 11.865 11.4203 11.6925C11.4292 11.6902 11.438 11.6925 11.4601 11.6902C11.4601 11.7279 11.4601 11.7655 11.4601 11.8009C11.4601 13.5907 11.4535 15.3828 11.4646 17.1727C11.4712 18.0754 11.5929 18.967 11.9004 19.8232C12.1438 20.5024 12.5044 21.1086 13.042 21.5998C13.5465 22.0578 14.1372 22.3476 14.7987 22.4892C15.7346 22.6905 16.6682 22.675 17.5864 22.3852C18.6705 22.0445 19.4227 21.3232 19.905 20.3077C20.1639 19.7657 20.3188 19.1904 20.4161 18.5997C20.5245 17.9426 20.5511 17.2789 20.5511 16.6151C20.5511 15.0178 20.5511 13.4182 20.5511 11.8208C20.5488 11.7787 20.5488 11.7389 20.5488 11.6748Z" fill="white"/>
<path d="M17.3163 14.9935C16.4335 14.9935 15.5596 14.9935 14.6813 14.9935C14.6813 12.936 14.6813 10.8806 14.6813 8.82741C14.9556 8.74112 16.7942 8.73448 17.3163 8.82077C17.3163 10.8784 17.3163 12.936 17.3163 14.9935Z" fill="white"/>
<path d="M20.5488 11.6748C21.0312 11.781 21.498 11.8717 21.956 11.9889C22.4427 12.1128 22.925 12.2633 23.4073 12.3982C23.4759 12.4181 23.5025 12.4447 23.5025 12.5221C23.5002 14.0288 23.5157 15.5377 23.4958 17.0444C23.4737 18.6639 22.9626 20.1285 21.9781 21.4161C20.8807 22.852 19.4448 23.7768 17.6882 24.1972C16.9957 24.3631 16.2899 24.4184 15.5797 24.3764C13.8916 24.2768 12.396 23.6817 11.1172 22.5777C9.79855 21.4427 8.96667 20.0135 8.63259 18.301C8.53746 17.8143 8.49985 17.3209 8.49985 16.8253C8.49763 15.3983 8.49985 13.9735 8.49542 12.5465C8.49542 12.4513 8.5264 12.4181 8.61268 12.3916C9.53306 12.0973 10.4712 11.865 11.4203 11.6925C11.4292 11.6902 11.438 11.6925 11.4601 11.6902C11.4601 11.7279 11.4601 11.7655 11.4601 11.8009C11.4601 13.5907 11.4535 15.3828 11.4646 17.1727C11.4712 18.0754 11.5929 18.967 11.9004 19.8232C12.1438 20.5024 12.5044 21.1086 13.042 21.5998C13.5465 22.0578 14.1372 22.3476 14.7987 22.4892C15.7346 22.6905 16.6682 22.675 17.5864 22.3852C18.6705 22.0445 19.4227 21.3232 19.905 20.3077C20.1639 19.7657 20.3188 19.1904 20.4161 18.5997C20.5245 17.9426 20.5511 17.2789 20.5511 16.6151C20.5511 15.0178 20.5511 13.4182 20.5511 11.8208C20.5488 11.7787 20.5488 11.7389 20.5488 11.6748Z" fill="white"/>
<path d="M17.3163 14.9935C16.4335 14.9935 15.5596 14.9935 14.6813 14.9935C14.6813 12.936 14.6813 10.8806 14.6813 8.82741C14.9556 8.74112 16.7942 8.73448 17.3163 8.82077C17.3163 10.8784 17.3163 12.936 17.3163 14.9935Z" fill="white"/>
<path d="M20.5488 11.6748C21.0312 11.781 21.498 11.8717 21.956 11.9889C22.4427 12.1128 22.925 12.2633 23.4073 12.3982C23.4759 12.4181 23.5025 12.4447 23.5025 12.5221C23.5002 14.0288 23.5157 15.5377 23.4958 17.0444C23.4737 18.6639 22.9626 20.1285 21.9781 21.4161C20.8807 22.852 19.4448 23.7768 17.6882 24.1972C16.9957 24.3631 16.2899 24.4184 15.5797 24.3764C13.8916 24.2768 12.396 23.6817 11.1172 22.5777C9.79855 21.4427 8.96667 20.0135 8.63259 18.301C8.53746 17.8143 8.49985 17.3209 8.49985 16.8253C8.49763 15.3983 8.49985 13.9735 8.49542 12.5465C8.49542 12.4513 8.5264 12.4181 8.61268 12.3916C9.53306 12.0973 10.4712 11.865 11.4203 11.6925C11.4292 11.6902 11.438 11.6925 11.4601 11.6902C11.4601 11.7279 11.4601 11.7655 11.4601 11.8009C11.4601 13.5907 11.4535 15.3828 11.4646 17.1727C11.4712 18.0754 11.5929 18.967 11.9004 19.8232C12.1438 20.5024 12.5044 21.1086 13.042 21.5998C13.5465 22.0578 14.1372 22.3476 14.7987 22.4892C15.7346 22.6905 16.6682 22.675 17.5864 22.3852C18.6705 22.0445 19.4227 21.3232 19.905 20.3077C20.1639 19.7657 20.3188 19.1904 20.4161 18.5997C20.5245 17.9426 20.5511 17.2789 20.5511 16.6151C20.5511 15.0178 20.5511 13.4182 20.5511 11.8208C20.5488 11.7787 20.5488 11.7389 20.5488 11.6748Z" fill="white"/>
<path d="M17.3163 14.9935C16.4335 14.9935 15.5596 14.9935 14.6813 14.9935C14.6813 12.936 14.6813 10.8806 14.6813 8.82741C14.9556 8.74112 16.7942 8.73448 17.3163 8.82077C17.3163 10.8784 17.3163 12.936 17.3163 14.9935Z" fill="white"/>
<path d="M20.5488 11.6748C21.0312 11.781 21.498 11.8717 21.956 11.9889C22.4427 12.1128 22.925 12.2633 23.4073 12.3982C23.4759 12.4181 23.5025 12.4447 23.5025 12.5221C23.5002 14.0288 23.5157 15.5377 23.4958 17.0444C23.4737 18.6639 22.9626 20.1285 21.9781 21.4161C20.8807 22.852 19.4448 23.7768 17.6882 24.1972C16.9957 24.3631 16.2899 24.4184 15.5797 24.3764C13.8916 24.2768 12.396 23.6817 11.1172 22.5777C9.79855 21.4427 8.96667 20.0135 8.63259 18.301C8.53746 17.8143 8.49985 17.3209 8.49985 16.8253C8.49763 15.3983 8.49985 13.9735 8.49542 12.5465C8.49542 12.4513 8.5264 12.4181 8.61268 12.3916C9.53306 12.0973 10.4712 11.865 11.4203 11.6925C11.4292 11.6902 11.438 11.6925 11.4601 11.6902C11.4601 11.7279 11.4601 11.7655 11.4601 11.8009C11.4601 13.5907 11.4535 15.3828 11.4646 17.1727C11.4712 18.0754 11.5929 18.967 11.9004 19.8232C12.1438 20.5024 12.5044 21.1086 13.042 21.5998C13.5465 22.0578 14.1372 22.3476 14.7987 22.4892C15.7346 22.6905 16.6682 22.675 17.5864 22.3852C18.6705 22.0445 19.4227 21.3232 19.905 20.3077C20.1639 19.7657 20.3188 19.1904 20.4161 18.5997C20.5245 17.9426 20.5511 17.2789 20.5511 16.6151C20.5511 15.0178 20.5511 13.4182 20.5511 11.8208C20.5488 11.7787 20.5488 11.7389 20.5488 11.6748Z" fill="white"/>
<path d="M17.3163 14.9935C16.4335 14.9935 15.5596 14.9935 14.6813 14.9935C14.6813 12.936 14.6813 10.8806 14.6813 8.82741C14.9556 8.74112 16.7942 8.73448 17.3163 8.82077C17.3163 10.8784 17.3163 12.936 17.3163 14.9935Z" fill="white"/>
</svg>
